<svg xmlns="http://www.w3.org/2000/svg" width="75" height="75"><path style="stroke:none;fill-rule:nonzero;fill:#6b247b;fill-opacity:1" d="M27.898 28.89a1.733 1.733 0 0 1 0 2.473L17.387 41.88a1.738 1.738 0 0 1-2.477 0l-4.95-4.95a1.738 1.738 0 0 1 0-2.476l10.5-10.512a1.733 1.733 0 0 1 2.474 0ZM47.086 28.89a1.733 1.733 0 0 0 0 2.473L57.602 41.88a1.733 1.733 0 0 0 2.472 0l4.95-4.95a1.738 1.738 0 0 0 0-2.476L54.511 23.941a1.738 1.738 0 0 0-2.477 0Zm0 0"/><path style="stroke:none;fill-rule:nonzero;fill:#9b62a5;fill-opacity:1" d="M19.965 25.156a1.75 1.75 0 0 1 1.754-1.758h31.578a1.75 1.75 0 0 1 1.754 1.758v35.098c0 2.91-2.356 5.25-5.25 5.25H25.215a5.246 5.246 0 0 1-5.25-5.25V25.156Zm0 0"/><path style="stroke:none;fill-rule:nonzero;fill:#d3add2;fill-opacity:1" d="M49.934 39.164v5.25c0 .977-.778 1.758-1.754 1.758h-5.25a1.747 1.747 0 0 1-1.754-1.758v-5.25"/><path style="stroke:none;fill-rule:nonzero;fill:#b886bb;fill-opacity:1" d="M41.16 37.41h8.762v1.754H41.16Zm0 0"/><path style="stroke:none;fill-rule:nonzero;fill:#6b247b;fill-opacity:1" d="M28.906 23.398a8.75 8.75 0 0 0 8.758 8.762 8.75 8.75 0 0 0 8.762-8.762"/><path style="stroke:none;fill-rule:nonzero;fill:#d3add2;fill-opacity:1" d="M30.645 23.398a7.006 7.006 0 1 0 14.011 0"/></svg>