<svg xmlns="http://www.w3.org/2000/svg" width="75" height="75"><path style="stroke:none;fill-rule:nonzero;fill:#33c8ec;fill-opacity:1" d="M67.828 51.285a4.328 4.328 0 0 1-4.332 4.336h-52.02a4.329 4.329 0 0 1-4.335-4.336v-34.68a4.326 4.326 0 0 1 4.336-4.335h52.02a4.325 4.325 0 0 1 4.331 4.335Zm0 0"/><path style="stroke:none;fill-rule:nonzero;fill:#0095b9;fill-opacity:1" d="M15.809 52.379c0 .601-.48 1.082-1.079 1.082-.601 0-1.082-.48-1.082-1.082v-2.176c0-.598.48-1.078 1.082-1.078.598 0 1.079.48 1.079 1.078ZM61.336 52.379c0 .601-.48 1.082-1.082 1.082-.598 0-1.078-.48-1.078-1.082v-2.176c0-.598.48-1.078 1.078-1.078.601 0 1.082.48 1.082 1.078Zm0 0"/><path style="stroke:none;fill-rule:nonzero;fill:#bdedf9;fill-opacity:1" d="M72.164 55.621a4.325 4.325 0 0 1-4.336 4.332H7.141a4.325 4.325 0 0 1-4.336-4.332v-2.176c0-1.199.976-2.175 2.175-2.175h65.024c1.2 0 2.176.976 2.176 2.175v2.176Zm0 0"/><path style="stroke:none;fill-rule:nonzero;fill:#33c8ec;fill-opacity:1" d="M71.578 57.797H3.391a4.342 4.342 0 0 0 3.75 2.172h60.687c1.606-.016 3-.883 3.75-2.172"/><path style="stroke:none;fill-rule:nonzero;fill:#0095b9;fill-opacity:1" d="M28.816 51.285c0 1.2.973 2.176 2.172 2.176h13.008c1.2 0 2.176-.977 2.176-2.176"/><path style="stroke:none;fill-rule:nonzero;fill:#ddf6fc;fill-opacity:1" d="M63.512 44.79c0 1.198-.977 2.175-2.176 2.175h-47.7a2.176 2.176 0 0 1-2.175-2.176V18.781c0-1.203.973-2.176 2.176-2.176H61.32c1.2 0 2.176.973 2.176 2.176V44.79Zm0 0"/><path style="stroke:none;fill-rule:nonzero;fill:#0095b9;fill-opacity:1" d="M38.566 14.445c0 .602-.48 1.078-1.082 1.078a1.073 1.073 0 0 1-1.078-1.078c0-.601.48-1.082 1.078-1.082a1.07 1.07 0 0 1 1.082 1.082"/></svg>