<svg xmlns="http://www.w3.org/2000/svg" width="75" height="75"><defs><clipPath id="a"><path d="M9 46h45v20H9Zm0 0"/></clipPath><clipPath id="b"><path d="M53.984 49.363c-.238-8.984-5.847-16.738-13.738-20.082H22.875c-8.086 3.39-13.738 11.383-13.738 20.684a22.3 22.3 0 0 0 5.144 14.281 3.664 3.664 0 0 0 2.832 1.32h28.938c1.094 0 2.129-.48 2.847-1.32 3.286-4.035 5.239-9.21 5.086-14.883Zm0 0"/></clipPath><clipPath id="c"><path d="M9 46h45v20H9Zm0 0"/></clipPath><clipPath id="d"><path d="M53.984 49.363c0-.285-.015-.554-.043-.84-.707-10.886-9.992-19.242-20.91-19.242h-2.957c-11.176 0-20.562 8.742-20.953 19.918-.016.254-.016.512-.016.766a22.3 22.3 0 0 0 5.145 14.281 3.672 3.672 0 0 0 2.836 1.32H46.02c1.093 0 2.128-.48 2.851-1.32 3.313-4.035 5.266-9.21 5.113-14.883Zm0 0"/></clipPath></defs><path style="stroke:none;fill-rule:nonzero;fill:#f4a09c;fill-opacity:1" d="M61.59 37.215h-2.64v-8.34c0-7.574-6.165-13.727-13.723-13.727H31.754v-2.636h13.473c9.027 0 16.363 7.332 16.363 16.363Zm0 0"/><path style="stroke:none;fill-rule:nonzero;fill:#f4a09c;fill-opacity:1" d="M31.727 9.434c1.062 0 1.933.87 1.933 1.937v10.527a1.941 1.941 0 0 1-1.933 1.938 1.942 1.942 0 0 1-1.938-1.938V11.371c0-1.066.871-1.937 1.938-1.937Zm0 0"/><path style="stroke:none;fill-rule:nonzero;fill:#f7b9ba;fill-opacity:1" d="M24.977 19.89H38.46a1.94 1.94 0 0 1 1.934 1.934v9.66a1.941 1.941 0 0 1-1.934 1.938H24.977a1.942 1.942 0 0 1-1.938-1.938v-9.66c0-1.062.856-1.933 1.938-1.933Zm0 0"/><g clip-path="url(#a)"><g clip-path="url(#b)"><path style="stroke:none;fill-rule:nonzero;fill:#f7b9ba;fill-opacity:1" d="M28.754 48.676c-6.54-2.43-13.707-2.04-19.23-1.442C7.335 50.551 6.21 54.238 6.21 58.23c0 4.5.766 7.184 3.164 10.543H52.32c2.114-3.011 2.7-5.457 2.7-10.304 0-2.356-.317-4.528-.961-6.508-7.707 1.2-16.2.09-25.305-3.285Zm0 0"/></g></g><path style="stroke:none;fill-rule:nonzero;fill:#f4a09c;fill-opacity:1" d="M53.984 49.363c0-.285-.015-.554-.043-.84-.707-10.886-9.992-19.242-20.91-19.242h-2.957c-11.176 0-20.562 8.742-20.953 19.918-.016.254-.016.512-.016.766a22.3 22.3 0 0 0 5.145 14.281 3.672 3.672 0 0 0 2.836 1.32H46.02c1.093 0 2.128-.48 2.851-1.32 3.313-4.035 5.266-9.21 5.113-14.883Zm0 0"/><g clip-path="url(#c)"><g clip-path="url(#d)"><path style="stroke:none;fill-rule:nonzero;fill:#f4a09c;fill-opacity:1" d="M28.754 48.676c-6.54-2.43-13.707-2.04-19.23-1.442C7.335 50.551 6.21 54.238 6.21 58.23c0 4.5.766 7.184 3.164 10.543H52.32c2.114-3.011 2.7-5.457 2.7-10.304 0-2.356-.317-4.528-.961-6.508-7.707 1.2-16.2.09-25.305-3.285Zm0 0"/><path style="stroke:none;fill-rule:nonzero;fill:#f7b9ba;fill-opacity:1" d="M28.754 48.676c-6.54-2.43-13.707-2.04-19.23-1.442C7.335 50.551 6.21 54.238 6.21 58.23c0 4.5.766 7.184 3.164 10.543H52.32c2.114-3.011 2.7-5.457 2.7-10.304 0-2.356-.317-4.528-.961-6.508-7.707 1.2-16.2.09-25.305-3.285Zm0 0"/></g></g><path style="stroke:none;fill-rule:nonzero;fill:#f7b9ba;fill-opacity:1" d="M29.895 10.621h3.628c1.067 0 1.938.867 1.938 1.934v2.535a1.939 1.939 0 0 1-1.938 1.933h-3.628a1.936 1.936 0 0 1-1.934-1.933v-2.535c-.016-1.067.855-1.934 1.934-1.934ZM66.047 42.719c0-4.578-2.621-8.293-5.852-8.293-3.23 0-5.851 3.715-5.851 8.293 0 4.582 2.62 8.297 5.851 8.297 3.23 0 5.852-3.715 5.852-8.297Zm0 0"/></svg>