<svg xmlns="http://www.w3.org/2000/svg" width="75" height="75"><path style="stroke:none;fill-rule:nonzero;fill:#33c8ec;fill-opacity:1" d="M65.625 65.625a4.701 4.701 0 0 1-4.688 4.688H14.063a4.701 4.701 0 0 1-4.688-4.688V9.375a4.701 4.701 0 0 1 4.688-4.688h46.874a4.701 4.701 0 0 1 4.688 4.688Zm0 0"/><path style="stroke:none;fill-rule:nonzero;fill:#00bae7;fill-opacity:1" d="M9.375 21.094V9.375a4.701 4.701 0 0 1 4.688-4.688h46.874a4.701 4.701 0 0 1 4.688 4.688v11.719"/><path style="stroke:none;fill-rule:nonzero;fill:#ddf6fc;fill-opacity:1" d="M56.25 10.547a1.17 1.17 0 0 1-1.172 1.172 1.17 1.17 0 0 1-1.172-1.172 1.17 1.17 0 0 1 1.172-1.172 1.17 1.17 0 0 1 1.172 1.172ZM60.938 10.547a1.17 1.17 0 0 1-1.172 1.172 1.17 1.17 0 0 1-1.172-1.172 1.17 1.17 0 0 1 1.172-1.172 1.17 1.17 0 0 1 1.172 1.172Zm0 0"/><path style="stroke:none;fill-rule:nonzero;fill:#0095b9;fill-opacity:1" d="M56.25 42.188c0 10.355-8.395 18.75-18.75 18.75s-18.75-8.395-18.75-18.75c0-10.356 8.395-18.75 18.75-18.75s18.75 8.394 18.75 18.75Zm0 0"/><path style="stroke:none;fill-rule:nonzero;fill:#bdedf9;fill-opacity:1" d="M53.906 42.188c0 9.062-7.343 16.406-16.406 16.406-9.063 0-16.406-7.344-16.406-16.407 0-9.062 7.343-16.406 16.406-16.406 9.063 0 16.406 7.344 16.406 16.407Zm0 0"/><path style="stroke:none;fill-rule:nonzero;fill:#ddf6fc;fill-opacity:1" d="M51.563 42.188c0 7.765-6.297 14.062-14.063 14.062-7.766 0-14.063-6.297-14.063-14.063 0-7.765 6.297-14.062 14.063-14.062 7.766 0 14.063 6.297 14.063 14.063Zm0 0"/><path style="stroke:none;fill-rule:nonzero;fill:#bdedf9;fill-opacity:1" d="M39.844 12.89a3.516 3.516 0 1 1-7.032 0 3.516 3.516 0 0 1 7.032 0ZM49.219 12.95a3.516 3.516 0 1 1-7.032-.001 3.516 3.516 0 0 1 7.032 0ZM28.125 14.063a2.35 2.35 0 0 1-2.344 2.343h-9.375a2.35 2.35 0 0 1-2.343-2.343v-2.344a2.35 2.35 0 0 1 2.343-2.344h9.375a2.35 2.35 0 0 1 2.344 2.344Zm0 0"/><path style="stroke:none;fill-rule:nonzero;fill:#0095b9;fill-opacity:1" d="M20.508 38.672h5.508a2.35 2.35 0 0 1 2.343 2.344v2.343a2.35 2.35 0 0 1-2.343 2.344h-5.508"/><path style="stroke:none;fill-rule:nonzero;fill:#00bae7;fill-opacity:1" d="M65.625 65.625a4.701 4.701 0 0 1-4.688 4.688H14.063a4.701 4.701 0 0 1-4.688-4.688"/></svg>