<svg xmlns="http://www.w3.org/2000/svg" width="75" height="75"><path style="stroke:none;fill-rule:nonzero;fill:#bb7342;fill-opacity:1" d="M40.453 30.703v-.672h-7.258c-1.246 0-2.355-.437-3.18-1.156-.824-.719-1.32-1.695-1.32-2.773 0-1.082.508-2.07 1.32-2.778.825-.719 1.95-1.152 3.18-1.152h7.258c1.246 0 2.356.433 3.184 1.152.824.723 1.316 1.696 1.316 2.778 0 1.078-.508 2.07-1.316 2.773-.828.719-1.953 1.156-3.184 1.156v1.348c1.668 0 3.184-.598 4.277-1.559 1.094-.96 1.77-2.28 1.77-3.734 0-1.457-.691-2.777-1.77-3.734-1.093-.961-2.609-1.563-4.277-1.563h-7.258c-1.664 0-3.18.602-4.273 1.563-1.098.957-1.774 2.277-1.774 3.734 0 1.453.692 2.773 1.774 3.734 1.094.961 2.61 1.559 4.273 1.559h7.258ZM40.453 53.52v-.676h-7.258c-1.246 0-2.355-.434-3.18-1.153-.824-.722-1.32-1.695-1.32-2.777 0-1.078.508-2.07 1.32-2.773.825-.72 1.95-1.157 3.18-1.157h7.258c1.246 0 2.356.438 3.184 1.157.824.718 1.316 1.695 1.316 2.773 0 1.082-.508 2.07-1.316 2.777-.828.72-1.953 1.153-3.184 1.153v1.351c1.668 0 3.184-.601 4.277-1.558 1.094-.961 1.77-2.282 1.77-3.739 0-1.453-.691-2.773-1.77-3.734-1.093-.96-2.609-1.559-4.277-1.559h-7.258c-1.664 0-3.18.598-4.273 1.56-1.098.96-1.774 2.28-1.774 3.733 0 1.457.692 2.778 1.774 3.739 1.094.957 2.61 1.558 4.273 1.558h7.258Zm0 0"/><path style="stroke:none;fill-rule:nonzero;fill:#7b4832;fill-opacity:1" d="M43.441 30.719H29.895a.957.957 0 0 1-.961-.957V10.41c0-.539.437-.96.96-.96h13.547c.54 0 .957.437.957.96v19.352a.954.954 0 0 1-.957.957Zm0 0"/><path style="stroke:none;fill-rule:nonzero;fill:#885138;fill-opacity:1" d="M43.441 30.719H29.895a.957.957 0 0 1-.961-.957V13.379c0-.54.437-.957.96-.957h13.547c.54 0 .957.433.957.957v16.383a.954.954 0 0 1-.957.957Zm0 0"/><path style="stroke:none;fill-rule:nonzero;fill:#7b4832;fill-opacity:1" d="M43.441 65.566H29.895a.96.96 0 0 1-.961-.96V45.464c0-.54.437-.961.96-.961h13.547c.54 0 .957.437.957.96v19.141c0 .524-.418.961-.957.961Zm0 0"/><path style="stroke:none;fill-rule:nonzero;fill:#885138;fill-opacity:1" d="M43.441 61.11H29.895a.958.958 0 0 1-.961-.962V45.465c0-.54.437-.961.96-.961h13.547c.54 0 .957.437.957.96v14.684c0 .528-.418.961-.957.961Zm0 0"/><path style="stroke:none;fill-rule:nonzero;fill:#7b4832;fill-opacity:1" d="M51.344 39.898a.799.799 0 0 1-.793-.793v-3.69c0-.435.36-.794.793-.794a.8.8 0 0 1 .797.793v3.691c.015.434-.344.793-.797.793Zm0 0"/><path style="stroke:none;fill-rule:nonzero;fill:#ce936a;fill-opacity:1" d="M46.559 24.328c-1.137-.164-2.368-.117-3.387-.101-5.445.027-10.906 0-16.352 0a3.398 3.398 0 0 0-3.39 3.402V41.73c0 3.133-1.364 10.29 4.906 8.848l16.992.047c4.98 1.02 4.785-3.824 4.684-6.75-.184-5.398-.032-10.828-.032-16.246v-.027c0-2.25-1.59-3.016-3.421-3.274Zm0 0"/><path style="stroke:none;fill-rule:nonzero;fill:#c3c2c2;fill-opacity:1" d="M48.406 37.5c0 6.45-5.234 11.684-11.687 11.684-6.45 0-11.684-5.235-11.684-11.684 0-6.465 5.235-11.7 11.7-11.7 6.437 0 11.671 5.235 11.671 11.7Zm0 0"/><path style="stroke:none;fill-rule:nonzero;fill:#7b4832;fill-opacity:1" d="M49.305 37.727c0 6.824-5.535 12.359-12.36 12.359h-.449c-6.824 0-12.375-5.535-12.375-12.36v-.453c0-6.824 5.535-12.375 12.375-12.375h.45c6.824 0 12.374 5.536 12.374 12.375v.454Zm0 0"/><path style="stroke:none;fill-rule:nonzero;fill:#fff;fill-opacity:1" d="M48.406 37.5c0 6.465-5.234 11.684-11.687 11.684-6.465 0-11.7-5.235-11.7-11.7 0-6.464 5.235-11.699 11.7-11.699 6.453.016 11.687 5.25 11.687 11.715Zm0 0"/><path style="stroke:none;fill-rule:nonzero;fill:#7b4832;fill-opacity:1" d="M49.906 35.863h.645v3.274h-.645ZM36.629 27.586v-.914c0-.047.031-.078.074-.078.047 0 .078.031.078.078v.914c0 .043-.031.074-.078.074a.072.072 0 0 1-.074-.074ZM36.629 48.328v-.914c0-.043.031-.074.074-.074.047 0 .078.031.078.074v.914c0 .047-.031.078-.078.078-.043 0-.074-.031-.074-.078ZM46.621 37.426h.914c.043 0 .074.027.074.074s-.03.074-.074.074h-.914c-.047 0-.074-.027-.074-.074s.027-.074.074-.074ZM25.875 37.426h.914c.047 0 .074.027.074.074s-.027.074-.074.074h-.914c-.047 0-.074-.027-.074-.074s.027-.074.074-.074ZM43.664 30.434l.645-.645c.03-.027.078-.027.12 0 .032.031.032.074 0 .121l-.644.645c-.031.03-.074.03-.12 0-.028-.043-.028-.09 0-.121ZM28.996 45.09l.645-.645c.03-.03.074-.03.12 0 .028.032.028.075 0 .121l-.648.645c-.027.027-.074.027-.117 0-.031-.031-.031-.074 0-.121ZM43.77 44.445l.644.645c.031.031.031.074 0 .12-.027.028-.074.028-.117 0l-.649-.644c-.027-.03-.027-.078 0-.12.047-.032.09-.032.122 0ZM29.102 29.79l.644.644c.027.03.027.078 0 .12-.031.032-.074.032-.121 0l-.645-.644c-.03-.031-.03-.074 0-.12.043-.028.09-.028.122 0ZM37.035 37.574a.403.403 0 1 1-.808 0c0-.222.18-.402.402-.402.226 0 .406.18.406.402Zm0 0"/><path style="stroke:none;fill-rule:nonzero;fill:#7b4832;fill-opacity:1" d="M28.71 37.574c0-.105.09-.195.196-.195h7.664c.106 0 .196.09.196.195 0 .106-.09.196-.196.196h-7.664a.189.189 0 0 1-.195-.196Zm0 0"/><path style="stroke:none;fill-rule:nonzero;fill:#7b4832;fill-opacity:1" d="M36.629 37.664a.295.295 0 0 1-.285-.285v-7.484c0-.149.136-.286.285-.286.152 0 .285.137.285.286v7.484a.282.282 0 0 1-.285.285Zm0 0"/></svg>