<svg xmlns="http://www.w3.org/2000/svg" width="75" height="75"><path style="stroke:none;fill-rule:nonzero;fill:#65b65b;fill-opacity:1" d="m65.43 33.703.195 1.684a2.195 2.195 0 0 1-1.078 2.082L36.105 54.137a4.632 4.632 0 0 1-4.664.011L10.906 42.36a3.114 3.114 0 0 1-1.394-1.71c-.196-.57-.168-1.184.011-1.77l.286-.914 17.613-1.14s33.36-3.93 35.34-3.688c1.976.254 2.668.566 2.668.566Zm0 0"/><path style="stroke:none;fill-rule:nonzero;fill:#8cc370;fill-opacity:1" d="M64.828 32.895 43.695 20.55a4.923 4.923 0 0 0-5.129-.047l-28.261 16.8c-.72.434-.72 1.485.015 1.907l21.586 12.523a4.234 4.234 0 0 0 4.258 0l28.652-16.59c.856-.496.868-1.722.012-2.25Zm0 0"/><path style="stroke:none;fill-rule:nonzero;fill:#6eb85d;fill-opacity:1" d="M62.625 33.945c0 .239-.121.45-.328.586l-13.531 7.95-.618.359-13.59 7.98a.667.667 0 0 1-.671 0l-4.89-2.773-.634-.363-1.633-.914-.628-.36-1.41-.797-.497-.285-4.394-2.488-.406-.227-.106-.058-.539-.301-1.531-.867-.63-.364-3.792-2.144a.676.676 0 0 1-.348-.582c0-.242.121-.453.332-.586l13.606-7.922.613-.36 13.875-8.07a.674.674 0 0 1 .676 0l4.515 2.61.614.36 1.484.855.617.363.778.45.496.284 4.41 2.547.496.285.57.332.614.36 1.5.87.628.36 3.993 2.309c.238.152.359.36.359.601Zm0 0"/><path style="stroke:none;fill-rule:nonzero;fill:#cfe5c6;fill-opacity:1" d="m48.766 42.48-.618.36-21.734-13.035.617-.36Zm0 0"/><path style="stroke:none;fill-rule:nonzero;fill:#cfe5c6;fill-opacity:1" d="M37.441 39c-2.492 0-4.425-1.246-4.425-2.836 0-1.59 1.949-2.836 4.425-2.836 2.473 0 4.422 1.246 4.422 2.836 0 1.59-1.933 2.836-4.422 2.836Zm0-5.04c-2.07 0-3.812 1.005-3.812 2.204 0 1.2 1.742 2.207 3.812 2.207s3.809-1.008 3.809-2.207c0-1.2-1.738-2.203-3.809-2.203ZM58.32 31.066l-5.25 2.938-12.136-6.973 5.16-3.047.617.36-4.531 2.687 10.89 6.254 4.621-2.582Zm0 0"/><path style="stroke:none;fill-rule:nonzero;fill:#cfe5c6;fill-opacity:1" d="m56.191 29.836-3.12 1.918-8.176-4.59 3.3-1.965.614.36-2.684 1.578 6.93 3.898 2.52-1.558ZM34.41 44.941l-5.414 3.118-.633-.36 4.785-2.746-11.234-6.328-2.383 1.41-.242.137-2.055 1.215-.629-.348 5.31-3.133Zm0 0"/><path style="stroke:none;fill-rule:nonzero;fill:#cfe5c6;fill-opacity:1" d="m30.164 44.82-3.418 1.965-.633-.36 2.778-1.605-6.66-3.765-.434.242-.527.281-1.47.813-.405.222-.106.063v-.121l-.523-.301.523-.285.512-.285.824-.465.523-.285 1.082-.582ZM48.254 33.21c-2.953 0-5.367-1.573-5.367-3.495 0-.57.207-1.125.597-1.621l.164-.207 7.98 4.59-.597.238a7.854 7.854 0 0 1-2.777.496Zm-4.426-4.515c-.207.328-.312.66-.312 1.02 0 1.59 2.129 2.863 4.738 2.863.66 0 1.305-.09 1.906-.238ZM31.621 44.04l-8.055-4.485.598-.239c.84-.347 1.8-.527 2.777-.543 2.954-.043 5.383 1.5 5.414 3.422.016.57-.195 1.125-.585 1.633Zm-6.57-4.38 6.39 3.555c.207-.328.297-.676.297-1.02-.011-1.59-2.172-2.836-4.785-2.804a7.957 7.957 0 0 0-1.902.27ZM55.004 25.875v3.27l-.492-.286V26.16l-4.426-2.46v2.609l-.496-.297v-3.153Zm0 0"/><path style="stroke:none;fill-rule:nonzero;fill:#cfe5c6;fill-opacity:1" d="M24.703 42.914v2.715l-.492-.285v-2.13l-2.941-1.636-.645-.36-.824-.464v2.086l-.406-.227-.106.063v-2.762l.242.121 1.617.899.649.363Zm0 0"/></svg>