<svg xmlns="http://www.w3.org/2000/svg" width="75" height="75"><path style="stroke:none;fill-rule:nonzero;fill:#ae662a;fill-opacity:1" d="M35.535 39.406h4.004v25.992h-4.004Zm0 0"/><path style="stroke:none;fill-rule:nonzero;fill:#9a521c;fill-opacity:1" d="M35.535 45.39h4.004v1.965h-4.004Zm0 0"/><path style="stroke:none;fill-rule:nonzero;fill:#ae662a;fill-opacity:1" d="M39.54 15.375a2.004 2.004 0 0 1-1.993 1.996 2.005 2.005 0 0 1-1.996-1.996v-4.004c0-1.098.898-1.996 1.996-1.996 1.094 0 1.992.898 1.992 1.996Zm0 0"/><path style="stroke:none;fill-rule:nonzero;fill:#ce936a;fill-opacity:1" d="M52.02 11.371a3.976 3.976 0 0 1 3.93 3.18l5.503 26.008c.469 2.16-.93 4.293-3.074 4.757-.285.059-.57.09-.84.075H17.535c-.285 0-.555-.032-.84-.075a4.009 4.009 0 0 1-3.074-4.757l5.504-26.008c.406-1.89 2.07-3.196 3.93-3.18Zm0 0"/><path style="stroke:none;fill-rule:nonzero;fill:#ae662a;fill-opacity:1" d="M47.535 45.39h1.996v8.087h-1.996Zm0 0"/><path style="stroke:none;fill-rule:nonzero;fill:#9a521c;fill-opacity:1" d="M50.52 54.75a2.005 2.005 0 0 1-1.997 1.996 2.004 2.004 0 0 1-1.992-1.996v-1.996a2 2 0 0 1 1.992-1.992c1.098 0 1.997.898 1.997 1.992Zm0 0"/><path style="stroke:none;fill-rule:nonzero;fill:#bb7342;fill-opacity:1" d="M51.54 63.422a2 2 0 0 1-1.993 1.992H25.53a2.001 2.001 0 0 1-1.996-1.992c0-1.098.899-1.996 1.996-1.996h24.016c1.11-.016 1.992.87 1.992 1.996"/></svg>