<svg xmlns="http://www.w3.org/2000/svg" width="75" height="75"><path style="stroke:none;fill-rule:nonzero;fill:#2c4973;fill-opacity:1" d="M13.605 20.73h46.98v33.165h-46.98Zm0 0"/><path style="stroke:none;fill-rule:nonzero;fill:#8ca4d1;fill-opacity:1" d="M29.414 20.102v2.25H45.36v-2.25Zm32.117 0H46.934v3.824H27.855v-3.824H13.273A3.89 3.89 0 0 0 9.375 24v27.105a3.89 3.89 0 0 0 3.898 3.899H61.56a3.893 3.893 0 0 0 3.902-3.899v-27.12c-.047-2.145-1.785-3.883-3.93-3.883Zm-38.418 9.851a3.777 3.777 0 0 1 3.782 3.781 3.774 3.774 0 0 1-3.782 3.782 3.764 3.764 0 0 1-3.777-3.782 3.776 3.776 0 0 1 3.777-3.78Zm5.91 19.652H17.22v-4.457c0-3.253 2.656-5.91 5.91-5.91 1.637 0 3.121.66 4.2 1.742a5.9 5.9 0 0 1 1.741 4.2v4.425Zm17.688 0H35.055v-1.484H46.71Zm11.625-4.921H35.07v-1.485h23.266Zm0-4.887H35.07v-1.488h23.266Zm0-5.793H35.07v-4.828h23.266Zm0 0"/><path style="stroke:none;fill-rule:nonzero;fill:#8ea6d1;fill-opacity:1" d="M27.855 20.102h19.079v3.824H27.855Zm0 0"/></svg>