<svg xmlns="http://www.w3.org/2000/svg" width="75" height="75"><path style="stroke:none;fill-rule:nonzero;fill:#2c4973;fill-opacity:1" d="M47.594 17.52H31.559a2 2 0 0 0-2.008 2.011v6.016c0 1.11.883 2.008 2.008 2.008h16.035a2 2 0 0 0 2.011-2.008V19.53c-.015-1.11-.914-2.011-2.011-2.011m0 8.011H31.559v-6.015h16.035Zm0 0"/><path style="stroke:none;fill-rule:nonzero;fill:#436bb2;fill-opacity:1" d="M65.55 61.605c0 2.204-1.8 4.004-4.003 4.004H13.453a4.014 4.014 0 0 1-4.004-4.004v-34.05c0-2.203 1.801-4.004 4.004-4.004h48.094c2.203 0 4.004 1.8 4.004 4.004Zm0 0"/><path style="stroke:none;fill-rule:nonzero;fill:#6989c2;fill-opacity:1" d="M15.45 41.387h44.085v24.238H15.45Zm0 0"/><path style="stroke:none;fill-rule:nonzero;fill:#2c4973;fill-opacity:1" d="M9.45 29.55c0-2.206 1.8-4.003 4.003-4.003h48.094a4.012 4.012 0 0 1 4.004 4.004v11.758a4.012 4.012 0 0 1-3.317 3.93l-24.75 4.366-24.718-4.378a4.017 4.017 0 0 1-3.317-3.93Zm0 0"/><path style="stroke:none;fill-rule:nonzero;fill:#8ea6d1;fill-opacity:1" d="M9.45 27.555c0-2.203 1.8-4.004 4.003-4.004h48.094c2.203 0 4.004 1.8 4.004 4.004V39.3a4.015 4.015 0 0 1-3.317 3.93l-24.75 4.363-24.718-4.364a4.014 4.014 0 0 1-3.317-3.93Zm0 0"/><path style="stroke:none;fill-rule:nonzero;fill:#ecf0f8;fill-opacity:1" d="M33.496 47.578c0-1.11.883-2.008 2.008-2.008h4.008c1.11 0 2.008.883 2.008 2.008v2.012c0 2.207-1.801 4.004-4.004 4.004a4.01 4.01 0 0 1-4.004-4.004"/></svg>