<svg xmlns="http://www.w3.org/2000/svg" width="75" height="75"><path style="stroke:none;fill-rule:nonzero;fill:#f8c81f;fill-opacity:1" d="M40.441 29.535c-.078-.137-.195-.137-.332-.137h-2.234c-.344 0-.676 0-1.02-.058-.164-.164-.12-.375-.12-.586V15.66c0-.148-.032-.332.105-.45.148-.062.316-.03.48-.03h22.828c1.997 0 4.098 1.457 4.864 3.3.328.81.476 1.633.465 2.504 0 1.094.043 2.192-.032 3.286-.18 2.207-1.336 3.75-3.332 4.695-.851.406-1.785.48-2.715.465-.18 0-.343-.016-.476.136-.195-.078-.39-.09-.602-.09H41.04a1.149 1.149 0 0 0-.599.06ZM58.379 31.02c-.149.449-.3.902-.418 1.367-.45 1.59-.617 3.191-.36 4.828.297 1.98.524 3.976.387 5.969a31.497 31.497 0 0 1-.554 4.261 56.522 56.522 0 0 1-1.063 4.184c-.226.781.465 1.652 1.305 1.652 1.215 0 2.07.582 2.61 1.649.39.75.374 1.558.316 2.386-.137.164-.332.118-.512.118h-19.5c-.211 0-.434.062-.613-.118-.032-.93-.18-1.875.164-2.761.312-.793.972-1.215 1.828-1.23 1.035-.016 2.086 0 3.12 0 1.126 0 1.845-.598 2.192-1.665.375-1.183.703-2.387.957-3.613.227-1.113.559-2.207.496-3.348-.015-.328.016-.687-.18-.988-.238-.723-.507-1.441-.96-2.055a5.88 5.88 0 0 1-.688-1.23c-.285-.645-.406-1.336-.48-2.028-.016-.117-.031-.253.074-.375 0-.687.016-1.394 0-2.082-.016-.48-.48-.87-1.004-.886a14.15 14.15 0 0 0-1.41 0c-1.02.058-1.86-.508-2.176-1.47-.27-.839-.629-1.651-.887-2.507.168-.164.391-.101.586-.101H58.02c.105 0 .242-.016.359.043Zm0 0"/><path style="stroke:none;fill-rule:nonzero;fill:#9c7f31;fill-opacity:1" d="M39.977 57.3h20.625c.011.122.027.24.027.345 0 2.175-.016 4.351.016 6.527.015.851-.497 1.273-1.274 1.273-6.062-.015-12.137-.015-18.195 0-.465 0-.84-.12-1.082-.554-.09-.18-.133-.36-.133-.555v-6.887c-.016-.043 0-.09.016-.148ZM36.84 15.21v13.903c0 .078.015.153.015.227-.539.031-1.05-.211-1.558-.317-1.172-.27-2.328-.57-3.48-.851-.887-.227-1.786-.438-2.672-.676-.434-.105-.524-.242-.508-.75.011-.316-.078-.39-.39-.39-1.294.015-2.599-.016-3.888 0-1.273.03-2.203-.497-2.746-1.665-.148-.195-.133-.453-.164-.675-.074-.84-.148-1.68-.058-2.52.058-.586-.016-1.2.238-1.758a.897.897 0 0 1 .105-.191c.391-.633.914-1.082 1.653-1.293.18-.043.36-.074.539-.074 1.437 0 2.894-.016 4.336 0 .27 0 .375-.043.36-.344-.017-.617.073-.676.687-.84 1.472-.36 2.925-.734 4.382-1.11.93-.241 1.875-.464 2.805-.69.117.015.223-.032.344.015Zm0 0"/><path style="stroke:none;fill-rule:nonzero;fill:#d8ab1c;fill-opacity:1" d="M58.379 31.02c-.133.09-.285.058-.434.058H41.024c-.254-.492-.387-1.031-.57-1.543 0-.105.03-.195.167-.195h17.926c.148 0 .375-.106.375.195a9.874 9.874 0 0 1-.543 1.485Zm0 0"/><path style="stroke:none;fill-rule:nonzero;fill:#f8c81f;fill-opacity:1" d="M21.734 19.574c-.195.465-.27.93-.254 1.442.016.945.016 1.906 0 2.847 0 .285.075.57.122.856-.227-.27-.196-.598-.211-.899-.016-.511 0-.496-.512-.511-.344-.012-.688.09-1.02.062-.687-.062-1.394.059-2.07-.016-.719-.074-1.426.016-2.129-.015-.781-.016-1.558-.059-2.34.015-.3.032-.601.032-.898-.03-.242-.044-.496-.016-.766.03-.465.075-.93-.046-1.41-.058-.105 0-.168-.094-.242-.152-.223-.211-.418-.45-.688-.63-.168-.12-.226-.253-.03-.421.12-.09.237-.196.316-.313.386-.57.945-.633 1.558-.527.195.031.328-.117.524-.09.375.047.75.016 1.113.09.207.047.36-.09.555-.09.386-.027.761.137 1.168.106.195-.016.359-.122.554-.106.36.047.735.016 1.082.09.223.047.39-.09.582-.09.375 0 .75.137 1.114.074.597-.09 1.214.09 1.796.016.497-.074.977 0 1.457 0 .223 0 .301-.074.286-.3a2.586 2.586 0 0 1 .18-1.216c.058-.09.09-.148.163-.164Zm0 0"/><path style="stroke:none;fill-rule:nonzero;fill:#9c7f31;fill-opacity:1" d="M46.484 38.04c.047 1.14.301 2.206.914 3.179.348.543.75 1.066.961 1.68.09.273.254.511.196.812H46.5c-.871 0-1.184-.258-1.426-1.066-.312-1.051-.66-2.098-1.004-3.133-.254-.739.211-1.426 1.004-1.457.465-.032.93-.016 1.41-.016Zm0 0"/><path style="stroke:none;fill-rule:nonzero;fill:#fae4a2;fill-opacity:1" d="M57.676 23.414h2.894c.48 0 .782.285.782.734.011.48-.286.813-.75.813-1.938.016-3.856 0-5.793 0-.48 0-.809-.348-.809-.781 0-.465.328-.766.84-.766h2.836ZM57.676 22.664H54.84c-.496 0-.824-.3-.84-.734-.016-.45.316-.809.809-.809 1.937-.016 3.855-.016 5.793 0 .492 0 .761.344.75.84-.016.418-.317.703-.782.703h-2.894ZM57.676 27.164h-2.867c-.36 0-.672-.223-.778-.523-.105-.317 0-.66.297-.887a.71.71 0 0 1 .453-.149h5.82c.434 0 .75.317.75.735 0 .465-.273.797-.722.797-.973.027-1.965.027-2.953.027Zm0 0"/><path style="stroke:none;fill-rule:nonzero;fill:#b3964b;fill-opacity:1" d="M23.762 18.285h.375c1.41 0 2.804 0 4.215-.015.238 0 .343.046.343.316-.015 2.398 0 4.8-.015 7.2 0 .12-.043.253-.032.374.016.137-.043.149-.132.149-1.485 0-2.957-.012-4.442-.012-.015 0-.027-.016-.074-.047.121-.09.238-.059.344-.059.918 0 1.816-.015 2.73 0 .27 0 .317-.09.317-.332a543.883 543.883 0 0 1 0-7.14c0-.254-.075-.328-.332-.328-.957.015-1.934 0-2.895 0-.105.015-.223.043-.402-.106Zm0 0"/><path style="stroke:none;fill-rule:nonzero;fill:#fae4a2;fill-opacity:1" d="M35.43 26.055c0 .539-.45.898-.977.765-.957-.242-1.918-.523-2.894-.78a12.577 12.577 0 0 0-.75-.165c-.704-.148-.989-.676-.672-1.246.164-.285.449-.434.824-.344.973.238 1.934.48 2.894.793.317.106.66.152.989.227.39.074.586.343.586.75ZM30.797 20.16c-.406-.015-.738-.27-.766-.613-.047-.48.207-.856.672-.934.617-.09 1.188-.312 1.785-.465.66-.148 1.309-.343 1.965-.492.469-.105.871.117.977.54.105.406-.121.78-.602.929-.793.238-1.59.434-2.383.645-.422.105-.855.18-1.261.332-.133.043-.27.043-.387.058ZM32.773 21.496h1.832c.391 0 .692.195.782.492.117.375.027.766-.301.961-.3.18-.691.18-1.02.137-.554-.074-1.113-.031-1.668-.047-.507-.016-1.003 0-1.511 0-.528 0-.813-.27-.871-.687-.063-.497.406-.856.855-.856h1.902ZM16.453 23.297c-.465 0-.476 0-.387-.406.106-.48.223-.946.36-1.41.043-.165.508-.27.687-.165.184.106.09.27.047.418-.105.407-.27.813-.316 1.23-.028.333-.18.36-.39.333ZM13.035 23.297c-.375 0-.406-.031-.316-.375.105-.453.21-.918.332-1.367.058-.211.644-.375.793-.227.047.047.031.094.031.152-.121.54-.238 1.079-.375 1.606-.074.238-.285.21-.465.21ZM11.746 21.3c.492 0 .492 0 .375.45-.105.406-.195.824-.3 1.23-.06.254-.571.434-.782.286-.09-.063-.043-.153-.027-.243.101-.464.222-.93.312-1.394.063-.27.18-.39.422-.328ZM14.7 23.281c-.302.074-.391-.031-.313-.347.133-.48.238-.973.36-1.454.042-.164.48-.285.687-.164.195.106.09.27.046.418-.105.407-.27.797-.316 1.2-.016.363-.18.39-.465.347ZM18.137 23.297c-.496 0-.496-.016-.39-.453.105-.434.222-.867.343-1.29.074-.238.39-.359.676-.238.238.09.105.286.058.434-.105.406-.254.809-.3 1.23-.028.317-.18.344-.387.317ZM19.8 23.297c-.464 0-.448 0-.347-.406.121-.438.227-.887.348-1.32.058-.243.597-.391.777-.227.078.062.031.136.016.21-.133.524-.27 1.051-.403 1.575-.078.258-.285.121-.39.168Zm0 0"/></svg>