<svg xmlns="http://www.w3.org/2000/svg" width="75" height="75"><path style="stroke:none;fill-rule:nonzero;fill:#fec82b;fill-opacity:1" d="M49.14 25.469H25.966c-3.512 0-6.375 2.867-6.375 6.375 0 3.511 2.863 6.375 6.375 6.375l.719.644h21.168l1.289-.644c3.507 0 6.375-2.864 6.375-6.375 0-3.508-2.868-6.375-6.375-6.375Zm0 0"/><path style="stroke:none;fill-rule:nonzero;fill:#ffe083;fill-opacity:1" d="m45.977 32.16.296-.332V20.852c0-.707.633-1.247 1.32-1.141a12.73 12.73 0 0 0 2.044.164c.418 0 .84-.016 1.258-.059l.39-.617V9.523l-.39-.328a10.995 10.995 0 0 0-1.258-.058c-4.59 0-8.313 2.398-8.313 5.367v17.34l.45.332h4.203Zm0 0"/><path style="stroke:none;fill-rule:nonzero;fill:#ffe083;fill-opacity:1" d="M44.055 16.648c0-.628.226-1.242.66-1.707 1.71-1.875 4.289-2.312 6.586-2.238v-3.18l-.39-.328a11.022 11.022 0 0 0-1.263-.058c-4.59 0-8.308 2.398-8.308 5.367v17.34l.45.332h2.28ZM24.21 9.195l-.331.614v9.39l.332.617c.402.043.824.059 1.258.059.707 0 1.383-.059 2.043-.164.687-.121 1.316.434 1.316 1.14v10.977l.285.39h3.871l.813-.39V14.504c0-2.969-3.723-5.367-8.313-5.367-.433 0-.855.011-1.273.058Zm0 0"/><path style="stroke:none;fill-rule:nonzero;fill:#ffe083;fill-opacity:1" d="M31.305 17.145c0-.676-.602-1.215-1.274-1.11-2.418.344-4.484.164-6.136-.238v3.402l.332.617c.402.043.824.059 1.257.059.707 0 1.38-.059 2.04-.164.69-.121 1.32.434 1.32 1.14v10.977l.285.39h2.191Zm0 0"/><path style="stroke:none;fill-rule:nonzero;fill:#8995cb;fill-opacity:1" d="M24.21 9.195c-1.41.133-2.698.496-3.78 1.035-.508.254-.84.782-.84 1.348v5.852c0 .57.332 1.093.84 1.351 1.082.524 2.37.899 3.78 1.035Zm0 0"/><path style="stroke:none;fill-rule:nonzero;fill:#e99728;fill-opacity:1" d="M24.21 19.816V9.196c-1.41.132-2.687.495-3.78 1.034-.508.254-.84.782-.84 1.348v5.852c0 .511.254.976.66 1.246.031.027.074.043.105.058.032.016.043.032.075.047.164.09.343.149.523.223.106.047.211.09.317.137.902.343 1.89.586 2.94.675ZM55.516 11.578c0-.328-.106-.644-.301-.898a1.633 1.633 0 0 0-.54-.465 11.214 11.214 0 0 0-3.78-1.035v10.636c1.41-.136 2.699-.496 3.78-1.035.509-.258.84-.781.84-1.351Zm0 0"/><path style="stroke:none;fill-rule:nonzero;fill:#ffe083;fill-opacity:1" d="M41.324 31.844h4.95v6.66h-4.95Zm0 0"/><path style="stroke:none;fill-rule:nonzero;fill:#ffe083;fill-opacity:1" d="M41.324 31.844h2.73v6.66h-2.73ZM28.828 31.844h4.953v6.66h-4.953Zm0 0"/><path style="stroke:none;fill-rule:nonzero;fill:#ffe083;fill-opacity:1" d="M28.828 30.75h3.285v8.852h-3.285Zm0 0"/><path style="stroke:none;fill-rule:nonzero;fill:#f0b529;fill-opacity:1" d="M53.73 38.203H21.375c-.977 0-1.77.797-1.77 1.774V53.73c0 3.48 1.5 6.63 3.899 8.79.285.253.57.496.887.718.3.227.613.438.945.649a11.804 11.804 0 0 0 6.164 1.722h12.137c6.566 0 11.879-5.324 11.879-11.879V39.977a1.78 1.78 0 0 0-1.786-1.774Zm0 0"/><path style="stroke:none;fill-rule:nonzero;fill:#e99728;fill-opacity:1" d="M36.613 38.203h-7.785v2.582c0 .945 1.035 1.711 2.297 1.711H43.98c1.258 0 2.293-.766 2.293-1.71v-2.583Zm0 0"/></svg>