<svg xmlns="http://www.w3.org/2000/svg" width="75" height="75"><path style="stroke:none;fill-rule:nonzero;fill:#0b96b9;fill-opacity:1" d="M56.79 24.375a1.004 1.004 0 1 1-2.009 0v-1.95a1.004 1.004 0 1 1 2.008 0ZM56.79 30.45a1.004 1.004 0 1 1-2.009 0V28.5a1.004 1.004 0 1 1 2.008 0ZM20.566 28.469a1.01 1.01 0 0 1-1.007 1.008 1.007 1.007 0 0 1-1.004-1.008v-6.016a1.007 1.007 0 0 1 2.012 0Zm0 0"/><path style="stroke:none;fill-rule:nonzero;fill:#46bfe4;fill-opacity:1" d="M55.785 61.605c0 2.22-1.8 4.02-4.02 4.02H23.657c-2.222 0-4.02-1.8-4.02-4.02v-48.21a4.019 4.019 0 0 1 4.02-4.02h28.11c2.218 0 4.02 1.8 4.02 4.02Zm0 0"/><path style="stroke:none;fill-rule:nonzero;fill:#def1f8;fill-opacity:1" d="M53.773 53.578a2.008 2.008 0 0 1-2.007 2.012h-28.11a2.011 2.011 0 0 1-2.011-2.012V17.43a2.01 2.01 0 0 1 2.011-2.008h28.11c1.109 0 2.007.898 2.007 2.008Zm0 0"/><path style="stroke:none;fill-rule:nonzero;fill:#c0e4f1;fill-opacity:1" d="M41.715 12.39c0 .555-.45 1.005-1.004 1.005h-6.016a1.004 1.004 0 1 1 0-2.008h6.016c.57 0 1.004.465 1.004 1.004"/><path style="stroke:none;fill-rule:nonzero;fill:#0b96b9;fill-opacity:1" d="M40.71 60.602a3.014 3.014 0 0 1-3.015 3.011 3.014 3.014 0 1 1 0-6.027 3.015 3.015 0 0 1 3.016 3.016"/></svg>