<svg xmlns="http://www.w3.org/2000/svg" width="75" height="75"><path style="stroke:none;fill-rule:nonzero;fill:#838d92;fill-opacity:1" d="M47.355 20.7a5.396 5.396 0 0 0-5.402-5.4H33a5.395 5.395 0 0 0-5.398 5.4v10.589h2.457V20.461a2.833 2.833 0 0 1 2.836-2.836h9.164a2.833 2.833 0 0 1 2.836 2.836v10.828h2.46V20.7Zm0 0"/><path style="stroke:none;fill-rule:nonzero;fill:#d1d5ce;fill-opacity:1" d="M13.453 31.965h48.094v27.797H13.453Zm0 0"/><path style="stroke:none;fill-rule:nonzero;fill:#6f6f6e;fill-opacity:1" d="M16.559 27.254h6.3c.887 0 1.606-.719 1.606-1.606v-1.046c0-.887-.719-1.606-1.606-1.606h-6.3c-.883 0-1.606.719-1.606 1.606v1.046c0 .887.723 1.606 1.606 1.606ZM52.2 27.254h6.3c.887 0 1.605-.719 1.605-1.606v-1.046c0-.887-.718-1.606-1.605-1.606h-6.3c-.884 0-1.606.719-1.606 1.606v1.046c0 .887.722 1.606 1.605 1.606Zm0 0"/><path style="stroke:none;fill-rule:nonzero;fill:#838d92;fill-opacity:1" d="M57.27 47.64h-9.317a.998.998 0 0 1-.988-.992v-.644c0-.54.45-.988.988-.988h9.317a1 1 0 0 1 .992.988v.644a.994.994 0 0 1-.992.993ZM26.73 45.031H23.7V42c0-.719-.587-1.305-1.305-1.305-.72 0-1.305.586-1.305 1.305v3.031h-3.031a1.305 1.305 0 1 0 0 2.61h3.03v3.03c0 .72.587 1.306 1.306 1.306.718 0 1.304-.586 1.304-1.305V47.64h3.031a1.305 1.305 0 1 0 0-2.61ZM41.398 47.07c.016-.015.032-.047.047-.074.016-.016.016-.031.032-.047.011-.015.011-.043.027-.058.016-.016.016-.032.031-.047.016-.016.016-.043.031-.059 0-.015.012-.047.012-.058 0-.016.016-.032.016-.063 0-.027.015-.043.015-.074 0-.016 0-.031.016-.043 0-.031.016-.047.016-.078v-.254c0-.016 0-.043-.016-.059 0-.015 0-.047-.016-.062 0-.028-.015-.043-.015-.074 0-.016-.016-.032-.016-.06 0-.015-.012-.046-.012-.062 0-.011-.015-.027-.015-.058-.016-.016-.016-.043-.031-.059-.016-.015-.016-.047-.032-.062-.011-.016-.011-.028-.027-.059a.123.123 0 0 1-.031-.058c-.016-.016-.032-.032-.032-.047-.011-.016-.027-.032-.043-.059l-.046-.047c-.012-.015-.028-.027-.043-.043l-.063-.062c-.012-.016-.012-.016-.027-.028h-.016c-.015-.015-.047-.03-.074-.046-.016-.016-.031-.016-.031-.032-.032-.011-.043-.027-.075-.043-.015-.015-.03-.015-.046-.03-.028-.017-.043-.028-.075-.028-.015 0-.03-.016-.043-.016-.015-.016-.046-.016-.062-.031-.016 0-.027-.016-.059-.016-.015 0-.047-.015-.058-.015-.016 0-.047-.012-.063-.012-.015 0-.027 0-.058-.016-.032 0-.047-.015-.075-.015h-3.136l3.586-4.922c.418-.582.3-1.41-.286-1.828a1.314 1.314 0 0 0-1.832.285l-5.113 7.004-.015.015c-.016.016-.032.043-.043.059-.016.016-.016.031-.032.047-.015.015-.03.043-.03.058-.017.016-.017.032-.028.047-.016.016-.016.043-.032.059 0 .015-.015.031-.015.058 0 .016-.016.047-.016.063s-.015.043-.015.059c0 .015-.012.046-.012.058 0 .031-.016.047-.016.078v.313c0 .015 0 .047.016.062 0 .028.012.043.012.074 0 .016.015.032.015.043 0 .032.016.047.016.079 0 .011.015.027.015.043.016.03.016.046.032.074.011.015.011.031.027.047.016.015.016.043.031.058.016.016.016.031.032.063.011.011.027.027.027.043a.256.256 0 0 1 .047.058c.015.016.027.032.043.047a.468.468 0 0 0 .047.043.468.468 0 0 1 .043.047l.046.047c.016.012.043.027.06.043.015 0 .015.015.03.015 0 0 .016 0 .016.016.016.016.043.027.074.043.016.016.031.016.043.031.031.016.047.032.078.032.016.011.028.011.043.011.016.016.047.016.074.032.016 0 .032.015.063.015.016 0 .043.016.059.016.015 0 .046.015.058.015.016 0 .047.012.063.012.015 0 .043.016.058.016h2.91l-3.78 4.441a1.307 1.307 0 0 0 .151 1.844 1.306 1.306 0 0 0 1.844-.149l5.625-6.601v-.016c.016-.011.031-.043.047-.058 0 .047.016.03.027.015Zm0 0"/><path style="stroke:none;fill-rule:nonzero;fill:#626161;fill-opacity:1" d="M11.64 31.965h51.735a2.126 2.126 0 0 0 2.129-2.13v-1.382a2.129 2.129 0 0 0-2.129-2.129H11.641a2.126 2.126 0 0 0-2.13 2.13v1.382c0 1.168.958 2.129 2.13 2.129ZM11.64 65.398h51.735a2.126 2.126 0 0 0 2.129-2.128v-1.38a2.126 2.126 0 0 0-2.129-2.128H11.641a2.124 2.124 0 0 0-2.13 2.129v1.379c0 1.171.958 2.128 2.13 2.128Zm0 0"/></svg>