<svg xmlns="http://www.w3.org/2000/svg" width="75" height="75"><path style="stroke:none;fill-rule:nonzero;fill:#19a382;fill-opacity:1" d="M65.488 55.531a3.994 3.994 0 0 1-4.004 4.004H13.38a3.994 3.994 0 0 1-4.004-4.004v-4.008a3.994 3.994 0 0 1 4.004-4.003h48.105a3.994 3.994 0 0 1 4.004 4.003Zm0 0"/><path style="stroke:none;fill-rule:nonzero;fill:#64beae;fill-opacity:1" d="M13.379 41.488c0-13.289 10.77-24.043 24.047-24.043 13.273 0 24.058 10.754 24.058 24.043v10.024a3.994 3.994 0 0 1-4.004 4.004H17.387a3.995 3.995 0 0 1-4.008-4.004v-5.973"/><path style="stroke:none;fill-rule:nonzero;fill:#36b397;fill-opacity:1" d="m41.46 17.79 1.981 37.741h2.008V18.81a24.173 24.173 0 0 0-3.988-1.02M33.422 17.79c-1.383.226-2.73.57-4.008 1.034v36.707h2.012Zm0 0"/><path style="stroke:none;fill-rule:nonzero;fill:#94cfc6;fill-opacity:1" d="M31.426 55.531v-36.09a3.995 3.995 0 0 1 4.004-4.007h4.004a3.996 3.996 0 0 1 4.007 4.007v36.075"/><path style="stroke:none;fill-rule:nonzero;fill:#d3eae7;fill-opacity:1" d="M46.441 30.555a9.014 9.014 0 0 0-9.015-9.016 9.014 9.014 0 0 0-9.016 9.016 9.014 9.014 0 0 0 9.016 9.015 9.014 9.014 0 0 0 9.015-9.015"/><path style="stroke:none;fill-rule:nonzero;fill:#64beae;fill-opacity:1" d="M44.445 30.555a7.003 7.003 0 0 0-7.004-7.004 7.003 7.003 0 1 0 0 14.008 7.003 7.003 0 0 0 7.004-7.004"/><path style="stroke:none;fill-rule:nonzero;fill:#e8f4f2;fill-opacity:1" d="M40.441 30.555c0-1.649-1.351-3-3-3-1.652 0-3 1.351-3 3 0 1.648 1.348 3 3 3 1.649 0 3-1.352 3-3"/></svg>