<?xml version="1.0" encoding="UTF-8"?>
<svg width="350px" height="299px" viewBox="0 0 350 299" version="1.1" xmlns="http://www.w3.org/2000/svg" xmlns:xlink="http://www.w3.org/1999/xlink">
    <!-- Generator: Sketch 51 (57462) - http://www.bohemiancoding.com/sketch -->
    <title>icons8-paid</title>
    <desc>Created with Sketch.</desc>
    <defs></defs>
    <g id="Page-1" stroke="none" stroke-width="1" fill="none" fill-rule="evenodd">
        <g id="Artboard-2" transform="translate(-225.000000, -90.000000)">
            <rect x="0" y="0" width="800" height="600"></rect>
            <g id="icons8-paid" transform="translate(225.000000, 90.000000)" fill-rule="nonzero">
                <path d="M186.666667,4.98333333 C180,-1.66111111 170,-1.66111111 163.333333,4.98333333 L63.3333333,104.65 C56.6666667,111.294444 56.6666667,121.261111 63.3333333,127.905556 C66.6666667,131.227778 70.8333333,132.888889 75,132.888889 C79.1666667,132.888889 83.3333333,131.227778 86.6666667,127.905556 L186.666667,28.2388889 C193.333333,21.5944444 193.333333,11.6277778 186.666667,4.98333333 Z" id="Shape" fill="#FBBC05"></path>
                <path d="M286.666667,104.65 L186.666667,4.98333333 C180,-1.66111111 170,-1.66111111 163.333333,4.98333333 C156.666667,11.6277778 156.666667,21.5944444 163.333333,28.2388889 L263.333333,127.905556 C266.666667,131.227778 270.833333,132.888889 275,132.888889 C279.166667,132.888889 283.333333,131.227778 286.666667,127.905556 C293.333333,121.261111 293.333333,111.294444 286.666667,104.65 Z" id="Shape" fill="#FF6B00"></path>
                <path d="M286.666667,299 L63.3333333,299 C55,299 48.3333333,293.186111 46.6666667,285.711111 L16.6666667,132.888889 L333.333333,132.888889 L302.5,285.711111 C300.833333,293.186111 294.166667,299 286.666667,299 Z" id="Shape" fill="#4285F4"></path>
                <path d="M333.333333,149.5 L16.6666667,149.5 C7.5,149.5 0,142.025 0,132.888889 L0,116.277778 C0,107.141667 7.5,99.6666667 16.6666667,99.6666667 L333.333333,99.6666667 C342.5,99.6666667 350,107.141667 350,116.277778 L350,132.888889 C350,142.025 342.5,149.5 333.333333,149.5 Z" id="Shape" fill="#6655CC"></path>
                <path d="M141.581154,173.480698 C120.045113,173.480698 102.586207,190.968934 102.586207,212.542517 C102.586207,231.57473 116.257854,247.53851 135.046168,251.217579 C137.678797,251.733051 136.883467,252.841469 136.68433,254.203048 C136.228811,257.322723 136.802472,261.453822 142.923351,261.027413 C161.632497,259.723787 180.576101,233.260233 180.576101,212.542517 C180.576101,190.968934 163.117804,173.480698 141.581154,173.480698 Z M141.51782,231.772988 C130.724222,231.772988 121.974977,223.008129 121.974977,212.196632 C121.974977,201.385134 130.724222,192.620275 141.51782,192.620275 C152.311418,192.620275 161.060663,201.385134 161.060663,212.196632 C161.060663,223.008129 152.311418,231.772988 141.51782,231.772988 Z M184.226949,245.587646 C182.562601,244.810472 181.409189,243.120089 181.409189,241.159464 C181.409189,240.234054 181.666179,239.368427 182.113172,238.630905 L182.587569,237.901313 C187.170768,230.509014 189.816795,221.786856 189.816795,212.444913 C189.816795,203.113339 187.17564,194.399112 182.601576,187.012303 L182.186859,186.360185 C181.711244,185.606192 181.435984,184.712503 181.435984,183.754762 C181.435984,181.765466 182.624108,180.053732 184.32804,179.292419 L193.527322,175.116178 C194.143003,174.834956 194.82689,174.678789 195.547316,174.678789 C197.313973,174.678789 198.861396,175.62006 199.715798,177.029831 L200.118335,177.69415 C202.632822,181.935053 204.700925,186.473039 206.258701,191.242226 L206.434697,191.79491 C206.663674,192.514131 207.062557,193.19065 207.631956,193.761025 C209.535633,195.667967 212.621954,195.667967 214.525632,193.761025 L233.440006,174.850207 C235.343683,172.943264 238.430004,172.943264 240.333682,174.850207 L247.236494,181.764856 C249.140172,183.671798 249.140172,186.763412 247.236494,188.670354 L230.437724,205.475971 C226.630368,209.289856 226.630368,215.473693 230.437724,219.287578 L247.427105,236.288404 C249.330783,238.195346 249.330783,241.28696 247.427105,243.193902 L240.525512,250.134172 C238.621834,252.041115 235.535513,252.041115 233.631835,250.134172 L214.525023,231.134291 C212.621345,229.227348 209.535024,229.227348 207.631347,231.134291 C207.036371,231.730286 206.627744,232.441577 206.404248,233.19679 L206.197803,233.831217 C204.624802,238.602844 202.539648,243.14083 200.008109,247.380513 L199.662208,247.950888 C198.801716,249.333818 197.269517,250.254347 195.522348,250.254347 C194.765383,250.254347 194.048611,250.08171 193.40918,249.773037 L184.226949,245.587646 Z" id="Shape" fill-opacity="0.8" fill="#FFFFFF"></path>
            </g>
        </g>
    </g>
</svg>