<svg xmlns="http://www.w3.org/2000/svg" width="75" height="75"><path style="stroke:none;fill-rule:nonzero;fill:#df5c11;fill-opacity:1" d="M31.484 11.387h2.028v12.297h-2.028ZM41.504 11.387h2.012v12.297h-2.012Zm0 0"/><path style="stroke:none;fill-rule:nonzero;fill:#f5a468;fill-opacity:1" d="M21.422 29.46c0-3.331 2.7-6.015 6.012-6.015H47.52c3.332 0 6.015 2.7 6.015 6.016v28.125c0 2.219-1.8 4.02-4.05 4.02H25.41c-2.191 0-3.988-1.801-3.988-4.02Zm0 0"/><path style="stroke:none;fill-rule:nonzero;fill:#ef7d2a;fill-opacity:1" d="M47.535 23.43c3.328 0 6.016 2.699 6.016 6.015V57.57c0 2.22-1.801 4.02-4.051 4.02h-1.98M27.45 23.43a6.016 6.016 0 0 0-6.016 6.015V57.57c0 2.22 1.8 4.02 3.992 4.02h2.023Zm0 0"/><path style="stroke:none;fill-rule:nonzero;fill:#df5c11;fill-opacity:1" d="M25.441 61.59V36.48a3.014 3.014 0 0 1 3.012-3.015h18.078a3.017 3.017 0 0 1 3.016 3.015v25.11"/><path style="stroke:none;fill-rule:nonzero;fill:#f28c47;fill-opacity:1" d="M27.45 61.574V37.5c0-1.11.902-2.012 2.01-2.012h16.063c1.114 0 2.012.903 2.012 2.012v24.074"/><path style="stroke:none;fill-rule:nonzero;fill:#df5c11;fill-opacity:1" d="M33.48 61.59v2.012a2.01 2.01 0 0 1-4.02 0V61.59M49.516 61.59v2.012a2.01 2.01 0 0 1-4.02 0V61.59"/><path style="stroke:none;fill-rule:nonzero;fill:#f5a468;fill-opacity:1" d="M43.516 11.387a2.01 2.01 0 0 1-2.012 2.008h-8.04a2.01 2.01 0 1 1 0-4.02h8.04c1.11 0 2.012.898 2.012 2.012"/><path style="stroke:none;fill-rule:nonzero;fill:#df5c11;fill-opacity:1" d="M43.516 28.453c0-.555-.45-1.004-1.004-1.004H32.477c-.555 0-1.008.45-1.008 1.004v2.012c0 .555.453 1.004 1.008 1.004h10.035c.554 0 1.004-.45 1.004-1.004Zm0 0"/></svg>