<svg xmlns="http://www.w3.org/2000/svg" width="75" height="75"><path style="stroke:none;fill-rule:nonzero;fill:#d7ba98;fill-opacity:1" d="m17.398 27.45 20.086-11.595L57.57 27.45v23.192c0 1.109-.797 2.46-1.742 3.015l-16.601 9.582c-.961.559-2.536.559-3.48 0L19.14 53.656c-.961-.554-1.743-1.906-1.743-3.015Zm0 0"/><path style="stroke:none;fill-rule:nonzero;fill:#d1ad7d;fill-opacity:1" d="M37.484 24.137H23.13l-5.73 3.312v23.192c0 1.109.78 2.46 1.742 3.015l16.605 9.582c.48.274 1.11.422 1.738.422Zm0 0"/><path style="stroke:none;fill-rule:nonzero;fill:#d1ad7d;fill-opacity:1" d="m57.555 27.45-20.07-11.595L17.397 27.45l20.086 11.598Zm0 0"/><path style="stroke:none;fill-rule:nonzero;fill:#b69261;fill-opacity:1" d="m37.484 39.047 20.07-11.598-20.07-11.594"/><path style="stroke:none;fill-rule:nonzero;fill:#e1c8b1;fill-opacity:1" d="M44.805 11.566c.96-.554 2.535-.543 3.48 0l16.59 9.582c.96.555.945 1.457 0 1.997l-7.379 4.304-20.07-11.594Zm0 0"/><path style="stroke:none;fill-rule:nonzero;fill:#b69261;fill-opacity:1" d="m57.555 29.488-20.07 9.559v2.055l7.261 4.062c.957.54 2.535.54 3.492-.016l9.348-5.382Zm0 0"/><path style="stroke:none;fill-rule:nonzero;fill:#d7ba98;fill-opacity:1" d="M64.816 31.5c.957.54.957 1.441 0 1.996l-16.605 9.582c-.961.559-2.535.559-3.496.016l-7.246-4.063L57.57 27.45Zm0 0"/><path style="stroke:none;fill-rule:nonzero;fill:#e1c8b1;fill-opacity:1" d="M30.148 11.566c-.957-.554-2.535-.543-3.476 0l-16.606 9.582c-.96.555-.945 1.457 0 1.997l7.332 4.304 20.07-11.594Zm0 0"/><path style="stroke:none;fill-rule:nonzero;fill:#b69261;fill-opacity:1" d="m37.484 39.047-20.086-9.559v10.293l9.274 5.356c.957.554 2.531.554 3.476.011l7.336-4.062Zm0 0"/><path style="stroke:none;fill-rule:nonzero;fill:#d7ba98;fill-opacity:1" d="M10.066 31.531c-.96.54-.96 1.438 0 1.992l16.59 9.586c.957.555 2.535.555 3.492.016l7.278-4.078-20.07-11.598Zm0 0"/><path style="stroke:none;fill-rule:nonzero;fill:#d1ad7d;fill-opacity:1" d="m45.512 53.926 4.02-2.34v5.684l-3.993 2.296Zm0 0"/></svg>