<svg xmlns="http://www.w3.org/2000/svg" width="75" height="75"><path style="stroke:none;fill-rule:nonzero;fill:#efbac5;fill-opacity:1" d="M17.04 13.11h41.788v24.886H17.04Zm0 0"/><path style="stroke:none;fill-rule:nonzero;fill:#d60e32;fill-opacity:1" d="M33.676 27.54c.36.358.36.944 0 1.288l-7.996 7.996a.905.905 0 0 1-1.29 0 .905.905 0 0 1 0-1.289l7.997-7.996a.905.905 0 0 1 1.289 0M49.996 27.54c.36.358.36.944 0 1.288L42 36.824a.905.905 0 0 1-1.29 0 .905.905 0 0 1 0-1.289l7.993-7.996a.91.91 0 0 1 1.293 0"/><path style="stroke:none;fill-rule:nonzero;fill:#e7748a;fill-opacity:1" d="M17.309 34.605h40.277v1.829H17.309Zm0 0"/><path style="stroke:none;fill-rule:nonzero;fill:#efbac5;fill-opacity:1" d="M17.445 43.516h10.543v8.578H17.445ZM47.281 43.516h10.543v8.578H47.281Zm0 0"/><path style="stroke:none;fill-rule:nonzero;fill:#931827;fill-opacity:1" d="M28.95 40.828h16.859v12.828h-16.86Zm0 0"/><path style="stroke:none;fill-rule:nonzero;fill:#d60e32;fill-opacity:1" d="M61.68 37.426h.601c1.305 0 2.25-1.035 2.25-2.25V20.055c0-1.305-1.035-2.25-2.25-2.25h-.601c-.09 0-.164 0-.254.09V14.43c0-2.52-2.086-4.606-4.606-4.606H18.016c-2.52 0-4.606 2.086-4.606 4.606v3.465c-.09 0-.164-.09-.254-.09h-.601c-1.305 0-2.25 1.035-2.25 2.25V35.07c0 1.305 1.035 2.25 2.25 2.25h.601c.09 0 .164 0 .254-.09v13.11h-.87c-1.306 0-2.25 1.035-2.25 2.25v3.898c0 1.309 1.034 2.25 2.25 2.25h2.956v4.457c0 1.305 1.035 2.25 2.25 2.25h5.82c1.305 0 2.25-1.035 2.25-2.25V58.77h23.262v4.425c0 1.305 1.035 2.25 2.25 2.25h5.73c1.305 0 2.25-1.035 2.25-2.25V58.77h2.958c1.304 0 2.25-1.036 2.25-2.25V52.62c0-1.305-1.036-2.25-2.25-2.25h-.871V37.336c.195 0 .195.09.285.09ZM17.324 17.28c0-1.304 1.035-2.25 2.25-2.25h35.778c1.304 0 2.25 1.035 2.25 2.25v16.23c0 1.305-1.036 2.25-2.25 2.25H19.574c-1.304 0-2.25-1.034-2.25-2.25Zm7.89 31.332h-5.038c-1.305 0-2.25-1.035-2.25-2.25s1.035-2.25 2.25-2.25h5.039c1.305 0 2.25 1.035 2.25 2.25a2.226 2.226 0 0 1-2.25 2.25Zm19.891 3.828H29.82V50.88H45v1.562Zm0-4.605H29.82v-1.484H45v1.468h.105Zm0-4.606H29.82v-1.558H45v1.558Zm2.34 3.122c0-1.305 1.035-2.25 2.25-2.25h5.04c1.304 0 2.25 1.035 2.25 2.25 0 1.214-1.036 2.25-2.25 2.25h-5.04c-1.289.011-2.25-1.036-2.25-2.25Zm0 0"/><path style="stroke:none;fill-rule:nonzero;fill:#931827;fill-opacity:1" d="M49.094 58.77h10.23v1.558h-10.23ZM15.496 58.77h10.348v1.558H15.496Zm0 0"/></svg>